HIERARCHY
ROOT hips
{
  OFFSET 0 10.6860622 2.3727825e-15
  CHANNELS 6 Xposition Yposition Zposition Yrotation Xrotation Zrotation
  JOINT leftUpperLeg
  {
    OFFSET 0.6642549969 -0.9402397400000004 0
    CHANNELS 3 Yrotation Xrotation Zrotation
    JOINT leftLowerLeg
    {
      OFFSET 0 -3.997221335632195 0
      CHANNELS 3 Yrotation Xrotation Zrotation
      JOINT leftFoot
      {
        OFFSET -0.13777839790000004 -4.6145792000000005 -0.22186036399999998
        CHANNELS 3 Yrotation Xrotation Zrotation
        JOINT leftToes
        {
          OFFSET -0.03777410834999995 -0.9130806927000008 0.85230013
          CHANNELS 3 Yrotation Xrotation Zrotation
          End Site
          {
            OFFSET -0.03777410834999995 -0.9130806927000008 0.85230013
          }
        }
      }
    }
  }
  JOINT rightUpperLeg
  {
    OFFSET -0.6642778626 -0.9402397400000004 0
    CHANNELS 3 Yrotation Xrotation Zrotation
    JOINT rightLowerLeg
    {
      OFFSET 0 -3.997221452859387 0
      CHANNELS 3 Yrotation Xrotation Zrotation
      JOINT rightFoot
      {
        OFFSET 0.1377926176 -4.6145792000000005 -0.22185782299999995
        CHANNELS 3 Yrotation Xrotation Zrotation
        JOINT rightToes
        {
          OFFSET 0.037780746850000047 -0.9130806927000008 0.85230167
          CHANNELS 3 Yrotation Xrotation Zrotation
          End Site
          {
            OFFSET 0.037780746850000047 -0.9130806927000008 0.85230167
          }
        }
      }
    }
  }
  JOINT spine
  {
    OFFSET 0 0.13988381660000015 0
    CHANNELS 3 Yrotation Xrotation Zrotation
    JOINT chest
    {
      OFFSET 0 0.6191039003973773 0
      CHANNELS 3 Yrotation Xrotation Zrotation
      JOINT upperChest
      {
        OFFSET 0 0.9855186130586943 0
        CHANNELS 3 Yrotation Xrotation Zrotation
        JOINT leftShoulder
        {
          OFFSET 0.1807663869 1.5087829790000005 0
          CHANNELS 3 Yrotation Xrotation Zrotation
          JOINT leftUpperArm
          {
            OFFSET 0.5985063006419806 0 0
            CHANNELS 3 Yrotation Xrotation Zrotation
            JOINT leftLowerArm
            {
              OFFSET 2.2993332369501065 0 0
              CHANNELS 3 Yrotation Xrotation Zrotation
              JOINT leftHand
              {
                OFFSET 2.395047042602395 0 0
                CHANNELS 3 Yrotation Xrotation Zrotation
                JOINT leftIndexProximal
                {
                  OFFSET 0.5766295810000004 0.04556643899499946 0.17265095988184
                  CHANNELS 3 Yrotation Xrotation Zrotation
                  JOINT leftIndexIntermediate
                  {
                    OFFSET 0.2957229000000008 -0.019352197700001517 -0.007932640616999987
                    CHANNELS 3 Yrotation Xrotation Zrotation
                    JOINT leftIndexDistal
                    {
                      OFFSET 0.19008243099999922 -0.012484908149998475 -0.002786250786000012
                      CHANNELS 3 Yrotation Xrotation Zrotation
                      End Site
                      {
                        OFFSET 0.19008243099999922 -0.012484908149998475 -0.002786250786000012
                      }
                    }
                  }
                }
                JOINT leftMiddleProximal
                {
                  OFFSET 0.5834975091000001 0.0524350405149987 0.02204081888183999
                  CHANNELS 3 Yrotation Xrotation Zrotation
                  JOINT leftMiddleIntermediate
                  {
                    OFFSET 0.33880573540000003 -0.019871473270000717 -0.00000971183179999946
                    CHANNELS 3 Yrotation Xrotation Zrotation
                    JOINT leftMiddleDistal
                    {
                      OFFSET 0.20676022730000088 -0.012221336379999448 0.0001471936708000235
                      CHANNELS 3 Yrotation Xrotation Zrotation
                      End Site
                      {
                        OFFSET 0.20676022730000088 -0.012221336379999448 0.0001471936708000235
                      }
                    }
                  }
                }
                JOINT leftLittleProximal
                {
                  OFFSET 0.5344154683999995 -0.012880921405001189 -0.24414037221816004
                  CHANNELS 3 Yrotation Xrotation Zrotation
                  JOINT leftLittleIntermediate
                  {
                    OFFSET 0.21758961730000093 -0.011650919939999227 0.011893592810000034
                    CHANNELS 3 Yrotation Xrotation Zrotation
                    JOINT leftLittleDistal
                    {
                      OFFSET 0.1475273964999999 -0.008152365682999818 0.006001092492999946
                      CHANNELS 3 Yrotation Xrotation Zrotation
                      End Site
                      {
                        OFFSET 0.1475273964999999 -0.008152365682999818 0.006001092492999946
                      }
                    }
                  }
                }
                JOINT leftRingProximal
                {
                  OFFSET 0.5799399463000003 0.026911854694997794 -0.12150566991816003
                  CHANNELS 3 Yrotation Xrotation Zrotation
                  JOINT leftRingIntermediate
                  {
                    OFFSET 0.26167887460000006 -0.013480186499999602 0.010996293000000053
                    CHANNELS 3 Yrotation Xrotation Zrotation
                    JOINT leftRingDistal
                    {
                      OFFSET 0.17667108799999987 -0.008990287899999228 0.0055541023999999065
                      CHANNELS 3 Yrotation Xrotation Zrotation
                      End Site
                      {
                        OFFSET 0.17667108799999987 -0.008990287899999228 0.0055541023999999065
                      }
                    }
                  }
                }
                JOINT leftThumbProximal
                {
                  OFFSET 0.11018806699999972 -0.09448718900500053 0.17047963138184
                  CHANNELS 3 Yrotation Xrotation Zrotation
                  JOINT leftThumbIntermediate
                  {
                    OFFSET 0.31062601459999983 -0.08126270900000132 0.15443142000000007
                    CHANNELS 3 Yrotation Xrotation Zrotation
                    JOINT leftThumbDistal
                    {
                      OFFSET 0.21627175790000086 -0.08833193599999878 0.018771167799999988
                      CHANNELS 3 Yrotation Xrotation Zrotation
                      End Site
                      {
                        OFFSET 0.21627175790000086 -0.08833193599999878 0.018771167799999988
                      }
                    }
                  }
                }
              }
            }
          }
        }
        JOINT neck
        {
          OFFSET 0 1.5463305265074576 0
          CHANNELS 3 Yrotation Xrotation Zrotation
          JOINT head
          {
            OFFSET 0 0.8456443600000344 0
            CHANNELS 3 Yrotation Xrotation Zrotation
            JOINT leftEye
            {
              OFFSET 0.30408573140000006 0.5104519199999995 0.1276382305
              CHANNELS 3 Yrotation Xrotation Zrotation
              End Site
              {
                OFFSET 0.30408573140000006 0.5104519199999995 0.1276382305
              }
            }
            JOINT rightEye
            {
              OFFSET -0.30409491089999996 0.5104519199999995 0.1276379445
              CHANNELS 3 Yrotation Xrotation Zrotation
              End Site
              {
                OFFSET -0.30409491089999996 0.5104519199999995 0.1276379445
              }
            }
            JOINT jaw
            {
              OFFSET -3.155239131000001e-7 -0.11984121820000082 0.60178107
              CHANNELS 3 Yrotation Xrotation Zrotation
              End Site
              {
                OFFSET -3.155239131000001e-7 -0.11984121820000082 0.60178107
              }
            }
          }
        }
        JOINT rightShoulder
        {
          OFFSET -0.1807303465 1.5087829790000005 0
          CHANNELS 3 Yrotation Xrotation Zrotation
          JOINT rightUpperArm
          {
            OFFSET -0.5985063796536958 0 0
            CHANNELS 3 Yrotation Xrotation Zrotation
            JOINT rightLowerArm
            {
              OFFSET -2.2993322059002854 0 0
              CHANNELS 3 Yrotation Xrotation Zrotation
              JOINT rightHand
              {
                OFFSET -2.395045314457259 0 0
                CHANNELS 3 Yrotation Xrotation Zrotation
                JOINT rightIndexProximal
                {
                  OFFSET -0.5764487688300002 0.0441371204405987 0.17361932004999997
                  CHANNELS 3 Yrotation Xrotation Zrotation
                  JOINT rightIndexIntermediate
                  {
                    OFFSET -0.29573011380000047 -0.01934826376999843 -0.007698921482999974
                    CHANNELS 3 Yrotation Xrotation Zrotation
                    JOINT rightIndexDistal
                    {
                      OFFSET -0.19008373999999884 -0.012503266380000655 -0.0026365778999999897
                      CHANNELS 3 Yrotation Xrotation Zrotation
                      End Site
                      {
                        OFFSET -0.19008373999999884 -0.012503266380000655 -0.0026365778999999897
                      }
                    }
                  }
                }
                JOINT rightMiddleProximal
                {
                  OFFSET -0.5834852037300005 0.05211639405060153 0.02307162440000001
                  CHANNELS 3 Yrotation Xrotation Zrotation
                  JOINT rightMiddleIntermediate
                  {
                    OFFSET -0.33880114510000003 -0.019952774050000954 0.0002455003561999819
                    CHANNELS 3 Yrotation Xrotation Zrotation
                    JOINT rightMiddleDistal
                    {
                      OFFSET -0.20675694929999955 -0.012273788999999091 0.00030209124000002766
                      CHANNELS 3 Yrotation Xrotation Zrotation
                      End Site
                      {
                        OFFSET -0.20675694929999955 -0.012273788999999091 0.00030209124000002766
                      }
                    }
                  }
                }
                JOINT rightLittleProximal
                {
                  OFFSET -0.5346811737299992 -0.011214256288399227 -0.24363941305000003
                  CHANNELS 3 Yrotation Xrotation Zrotation
                  JOINT rightLittleIntermediate
                  {
                    OFFSET -0.21757715980000092 -0.011771559690000988 0.01201554387
                    CHANNELS 3 Yrotation Xrotation Zrotation
                    JOINT rightLittleDistal
                    {
                      OFFSET -0.1475201849000004 -0.00822055339600003 0.006082065407000015
                      CHANNELS 3 Yrotation Xrotation Zrotation
                      End Site
                      {
                        OFFSET -0.1475201849000004 -0.00822055339600003 0.006082065407000015
                      }
                    }
                  }
                }
                JOINT rightRingProximal
                {
                  OFFSET -0.5800810755299999 0.027657985680600072 -0.12066365025000003
                  CHANNELS 3 Yrotation Xrotation Zrotation
                  JOINT rightRingIntermediate
                  {
                    OFFSET -0.26166445029999974 -0.013623118409999302 0.011164098990000045
                    CHANNELS 3 Yrotation Xrotation Zrotation
                    JOINT rightRingDistal
                    {
                      OFFSET -0.17666387530000027 -0.009072900100000503 0.005668185599999959
                      CHANNELS 3 Yrotation Xrotation Zrotation
                      End Site
                      {
                        OFFSET -0.17666387530000027 -0.009072900100000503 0.005668185599999959
                      }
                    }
                  }
                }
                JOINT rightThumbProximal
                {
                  OFFSET -0.10997596379000074 -0.09577489355940072 0.16989765924999997
                  CHANNELS 3 Yrotation Xrotation Zrotation
                  JOINT rightThumbIntermediate
                  {
                    OFFSET -0.31036620999999986 -0.08229339117999834 0.15440884469999996
                    CHANNELS 3 Yrotation Xrotation Zrotation
                    JOINT rightThumbDistal
                    {
                      OFFSET -0.21631306399999906 -0.08825326400000111 0.018656797720000014
                      CHANNELS 3 Yrotation Xrotation Zrotation
                      End Site
                      {
                        OFFSET -0.21631306399999906 -0.08825326400000111 0.018656797720000014
                      }
                    }
                  }
                }
              }
            }
          }
        }
      }
    }
  }
}
MOTION
Frames: 7
Frame Time: 0.03333333333333333
5.366740723532839 -10.258643182632323 7.529276290194011 0 74.79796595341432 0 46.66052662746574 -13.118520533151473 25.2154613553925 18.245801647545246 8.060745981605368 2.6594869402550794 -19.12271003898412 53.482887390552506 -13.414266799754962 0 0 0 -44.25022615635096 -19.77782509746009 -28.06497807023736 -18.244210632057257 14.134611701567284 -3.6987866096038293 21.469124306852994 53.598037060033995 15.152086226347173 0 0 0 -0.04072652839069314 18.33831329149541 -0.14376900185994718 -1.0712869508927472 -12.303634099651513 -0.9529481297984167 0 0 0 -2.313604460160075 4.725754302827485 3.109999177025369 10.61435405425292 -51.40611606301122 -50.88020794260191 -68.74593585761897 33.204434560987075 49.20308441631465 6.290380546255612 -5.719185921818803 -1.3062673091043093 0 0 0 0 0 0 0 0 0 0 0 0 0 0 0 0 0 0 0 0 0 0 0 0 0 0 0 0 0 0 0 0 0 0 0 0 0 0 0 0 0 0 0 0 0 0 -22.47874468588649 0 -0.0016282364711731078 -22.342704173751944 -0.05493003154151075 0 0 0 0 0 0 0 0 0 -5.312578377502604 0.9694305634264347 5.338610522850406 -5.746342475773473 -48.32270084776536 57.83424651565002 68.05988529441765 33.01062566446997 -52.395894972451295 -1.1260343144398208 1.4972139188044309 6.644593935464702 0 0 0 0 0 0 0 0 0 0 0 0 0 0 0 0 0 0 0 0 0 0 0 0 0 0 0 0 0 0 0 0 0 0 0 0 0 0 0 0 0 0 0 0 0
5.366740723532839 -10.258643182632323 7.5256079046298 0 74.5978288211068 0 46.69071994740436 -13.093157670095243 25.37937545167872 18.245801647545246 8.060745981605368 2.6594869402550794 -19.204534914641812 53.39419698268556 -13.403863355638833 0 0 0 -44.27536026342337 -19.73351723689997 -28.22081044174345 -18.24244075997663 14.157915207825218 -3.7025233276139278 21.543499660698927 53.54012711257066 15.12357428347701 0 0 0 -0.04072652839069314 18.33831329149541 -0.14376900185994718 -1.067390426471283 -11.871103822464041 -0.955304080466695 0 0 0 -2.1069865020210035 4.536832473699135 2.6811040189522966 9.646876038069399 -52.102028507555026 -50.46124026730525 -68.56924372851161 33.03488495448926 49.18172967545989 5.9405363182114295 -5.020312997114244 -1.571904194754369 0 0 0 0 0 0 0 0 0 0 0 0 0 0 0 0 0 0 0 0 0 0 0 0 0 0 0 0 0 0 0 0 0 0 0 0 0 0 0 0 0 0 0 0 0 0 -22.47874468588649 0 -0.0016282364711731078 -22.342704173751944 -0.05493003154151075 0 0 0 0 0 0 0 0 0 -5.199688748074069 1.0120936085066092 5.527378334764128 -5.399543545265017 -48.70165251042527 57.550629767322434 67.94020880371492 32.880868582813044 -52.424884368979725 -1.021497736406547 1.7951354855083408 6.661049567331789 0 0 0 0 0 0 0 0 0 0 0 0 0 0 0 0 0 0 0 0 0 0 0 0 0 0 0 0 0 0 0 0 0 0 0 0 0 0 0 0 0 0 0 0 0
5.366740723532839 -10.258643182632323 7.521940055850131 0 74.39769617840153 0 46.72098782004102 -13.067888571070958 25.543295597961077 18.245800009667605 8.06074511931223 2.6594862942317947 -19.286214633347345 53.305508123450615 -13.393271355022263 0 0 0 -44.30061301871682 -19.68926881695744 -28.376623820076976 -18.240674402704983 14.181224627681322 -3.706260827980856 21.617815216260777 53.48223888302255 15.09497076146656 0 0 0 -0.04072652839069314 18.33831329149541 -0.14376900185994718 -1.0635174679495503 -11.438595952803654 -0.9576253967089416 0 0 0 -1.8990262451598197 4.349472178357927 2.251673317628695 8.655968280099055 -52.7932082601314 -50.01641127414622 -68.39280304100625 32.86538857378383 49.15979338018539 5.58787032569733 -4.323225466042097 -1.8414938048790954 0 0 0 0 0 0 0 0 0 0 0 0 0 0 0 0 0 0 0 0 0 0 0 0 0 0 0 0 0 0 0 0 0 0 0 0 0 0 0 0 0 0 0 0 0 0 -22.47874468588649 0 -0.0016282364711731078 -22.342704173751944 -0.05493003154151075 0 0 0 0 0 0 0 0 0 -5.086659881730991 1.0543830918549628 5.716229747320402 -5.047269269407562 -49.07943299394479 57.26135943957017 67.82078266685352 32.751073796294676 -52.453493105422105 -0.9168611920720043 2.093017080292505 6.678053697534761 0 0 0 0 0 0 0 0 0 0 0 0 0 0 0 0 0 0 0 0 0 0 0 0 0 0 0 0 0 0 0 0 0 0 0 0 0 0 0 0 0 0 0 0 0
5.366740723532839 -10.258643182632323 7.518272207070463 0 74.1975654622741 0 46.751317816472486 -13.042691292782976 25.70719384725615 18.24580600321663 8.060746843898508 2.659487801619458 -19.367753587442056 53.21683770139561 -13.382489178747745 0 0 0 -44.32598687093406 -19.64508520117613 -28.532406936261967 -18.238908747171294 14.204529398413746 -3.709996052772886 21.692083558375227 53.424372223603704 15.06628314578466 0 0 0 -0.04072652839069314 18.33831329149541 -0.14376900185994718 -1.0596697365166714 -11.0061258063053 -0.959913789053275 0 0 0 -1.6897391784923876 4.163696332957874 1.8217215323432316 7.640483647755717 -53.47922603556984 -49.54455631463691 -68.21663025759341 32.69595580880388 49.13726721470646 5.2323326500806875 -3.6280318290499096 -2.1150617544720336 0 0 0 0 0 0 0 0 0 0 0 0 0 0 0 0 0 0 0 0 0 0 0 0 0 0 0 0 0 0 0 0 0 0 0 0 0 0 0 0 0 0 0 0 0 0 -22.47874468588649 0 -0.0016282364711731078 -22.342704173751944 -0.05493003154151075 0 0 0 0 0 0 0 0 0 -4.9734920504971685 1.0962990215944703 5.905160587315706 -4.689413269148994 -49.45599528275804 56.96636863092986 67.70162510002166 32.62122864102073 -52.48175909323009 -0.8121192186444735 2.3908550932035366 6.695606325465914 0 0 0 0 0 0 0 0 0 0 0 0 0 0 0 0 0 0 0 0 0 0 0 0 0 0 0 0 0 0 0 0 0 0 0 0 0 0 0 0 0 0 0 0 0
5.366740723532839 -10.258643182632323 7.51460382150625 0 73.99744659303127 0 46.78172499036332 -13.01759209719523 25.871098219686377 18.245801647545246 8.060745981605368 2.6594869402550794 -19.449149415885923 53.12816831577838 -13.371517922627065 0 0 0 -44.351476677717244 -19.600969934898007 -28.68816635446444 -18.23714326019961 14.227837449562404 -3.713731184479758 21.76629079847551 53.36652698741653 15.037503133142318 0 0 0 -0.04072652839069314 18.33831329149541 -0.14376900185994718 -1.0558443987460628 -10.573705975098532 -0.962169369997572 0 0 0 -1.479145748492559 3.979522378262536 1.39126520256563 6.599310890530082 -54.15966096702189 -49.04455995732797 -68.04071041788063 32.52658887013229 49.11419736663521 4.873877649506813 -2.9348486221537464 -2.3926351152919145 0 0 0 0 0 0 0 0 0 0 0 0 0 0 0 0 0 0 0 0 0 0 0 0 0 0 0 0 0 0 0 0 0 0 0 0 0 0 0 0 0 0 0 0 0 0 -22.47874468588649 0 -0.0016282364711731078 -22.342704173751944 -0.05493003154151075 0 0 0 0 0 0 0 0 0 -4.860189222775264 1.1378404440875947 6.094171886995086 -4.325787989548764 -49.83127467140471 56.6654288962781 67.58270723593665 32.49133671968247 -52.50966546496655 -0.7072682544444742 2.6886406678207195 6.7137057879123265 0 0 0 0 0 0 0 0 0 0 0 0 0 0 0 0 0 0 0 0 0 0 0 0 0 0 0 0 0 0 0 0 0 0 0 0 0 0 0 0 0 0 0 0 0
5.366740723532839 -10.258643182632323 7.510935972726582 0 73.79734898451616 0 46.81220171368045 -12.992567292125521 26.034988511393568 18.245801647545246 8.060745981605368 2.6594869402550794 -19.53040435728705 53.039511108200564 -13.360359983047998 0 0 0 -44.377090143329056 -19.556919311538902 -28.843903722861455 -18.23538741019453 14.251149666881417 -3.717468650457377 21.840441582484086 53.30869159723063 15.008633525146934 0 0 0 -0.04072652839069314 18.33831329149541 -0.14376900185994718 -1.0520417632591732 -10.14134462207796 -0.964391857670779 0 0 0 -1.2672613204999237 3.7969734098293957 0.960317777413955 5.5312669672616845 -54.83405992616968 -48.515236003307116 -67.86505718853506 32.357298038094804 49.090543276457154 4.512454920543313 -2.2437879596099513 -2.674239738295746 0 0 0 0 0 0 0 0 0 0 0 0 0 0 0 0 0 0 0 0 0 0 0 0 0 0 0 0 0 0 0 0 0 0 0 0 0 0 0 0 0 0 0 0 0 0 -22.47874468588649 0 -0.0016282364711731078 -22.342704173751944 -0.05493003154151075 0 0 0 0 0 0 0 0 0 -4.746752935756671 1.1790073652906783 6.28326090644728 -3.9563407822870467 -50.20526277151007 56.35851671912487 67.46404457126887 32.36140161179568 -52.53721663612518 -0.6023037649739464 2.986371128063029 6.732354381330439 0 0 0 0 0 0 0 0 0 0 0 0 0 0 0 0 0 0 0 0 0 0 0 0 0 0 0 0 0 0 0 0 0 0 0 0 0 0 0 0 0 0 0 0 0
5.366740723532839 -10.258643182632323 7.507267855554641 0 73.5972090136301 0 46.84274322141779 -12.967628239815548 26.19887100212823 18.245801647545246 8.060745981605368 2.6594869402550794 -19.611522763686864 52.95086579202436 -13.349016420833623 0 0 0 -44.40282212384342 -19.512935063657412 -28.99960766630327 -18.23362336206313 14.274451959952797 -3.7212029500501473 21.914553075251764 53.25090020154113 14.979690604863334 0 0 0 -0.04072652839069314 18.33831329149541 -0.14376900185994718 -1.0482623399393214 -9.709056779071938 -0.9665819937774606 0 0 0 -1.0541056417339159 3.6160649123621393 0.528892574363217 4.435093272353612 -55.501953107896455 -47.95533134371925 -67.68965122827665 32.18807334067171 49.06631060038846 4.148013677840092 -1.5549603878580542 -2.959904214224052 0 0 0 0 0 0 0 0 0 0 0 0 0 0 0 0 0 0 0 0 0 0 0 0 0 0 0 0 0 0 0 0 0 0 0 0 0 0 0 0 0 0 0 0 0 0 -22.47874468588649 0 -0.0016282364711731078 -22.342704173751944 -0.05493003154151075 0 0 0 0 0 0 0 0 0 -4.633184730911161 1.219796801250228 6.472425672004677 -3.580869480948286 -50.57789141679636 56.04542753917347 67.34561892446516 32.23141476234755 -52.56441132133043 -0.49722202037595853 3.284038653275986 6.751550666879096 0 0 0 0 0 0 0 0 0 0 0 0 0 0 0 0 0 0 0 0 0 0 0 0 0 0 0 0 0 0 0 0 0 0 0 0 0 0 0 0 0 0 0 0 0
